<svg width="80" height="61" viewBox="0 0 80 61" fill="none" xmlns="http://www.w3.org/2000/svg">
<path d="M79.3875 10.4257H74.4125C74.175 10.4257 73.9625 10.3211 73.8625 10.1689C73.7625 10.0072 73.775 9.81693 73.925 9.67424L76.4125 7.1344C76.525 7.02025 76.7125 6.94415 76.9 6.94415C77.1 6.94415 77.275 7.01074 77.3875 7.1344L79.875 9.67424C80.0125 9.81693 80.0375 10.0072 79.9375 10.1689C79.825 10.3211 79.6125 10.4257 79.3875 10.4257ZM75.6375 9.48399H78.1625L76.9 8.1998L75.6375 9.48399Z" fill="#0047AB"/>
<path d="M76.8875 55.0583H8.62501C8.28751 55.0583 8.01251 54.849 8.01251 54.5922C8.01251 54.3354 8.28751 54.1261 8.62501 54.1261H76.275V9.95006C76.275 9.69322 76.55 9.48395 76.8875 9.48395C77.225 9.48395 77.5 9.69322 77.5 9.95006V54.5827C77.5125 54.8395 77.2375 55.0583 76.8875 55.0583Z" fill="#0047AB"/>
<path d="M8.62499 56.9133C8.49999 56.9133 8.36249 56.8848 8.26249 56.8182L4.98749 54.9537C4.82499 54.8681 4.73749 54.7254 4.73749 54.5827C4.73749 54.4305 4.82499 54.2974 4.98749 54.2117L8.26249 52.3473C8.44999 52.2427 8.69999 52.2236 8.91249 52.2997C9.12499 52.3758 9.24999 52.5375 9.24999 52.7183V56.4377C9.24999 56.6184 9.12499 56.7801 8.91249 56.8562C8.81249 56.9038 8.71249 56.9133 8.62499 56.9133ZM6.37499 54.5827L8.01249 55.515V53.66L6.37499 54.5827ZM21.8375 55.0584C21.5 55.0584 21.225 54.8491 21.225 54.5922V42.3211H15.725V54.5922C15.725 54.8491 15.45 55.0584 15.1125 55.0584C14.775 55.0584 14.5 54.8491 14.5 54.5922V41.8455C14.5 41.5887 14.775 41.3794 15.1125 41.3794H21.85C22.1875 41.3794 22.4625 41.5887 22.4625 41.8455V54.5827C22.45 54.8396 22.175 55.0584 21.8375 55.0584ZM34.325 55.0584C33.9875 55.0584 33.7125 54.8491 33.7125 54.5922V34.9014H28.2125V54.5922C28.2125 54.8491 27.9375 55.0584 27.6 55.0584C27.2625 55.0584 26.9875 54.8491 26.9875 54.5922V34.4257C26.9875 34.1689 27.2625 33.9596 27.6 33.9596H34.3375C34.675 33.9596 34.95 34.1689 34.95 34.4257V54.5827C34.9375 54.8396 34.6625 55.0584 34.325 55.0584ZM46.825 55.0584C46.4875 55.0584 46.2125 54.8491 46.2125 54.5922V38.6493H40.7125V54.5922C40.7125 54.8491 40.4375 55.0584 40.1 55.0584C39.7625 55.0584 39.4875 54.8491 39.4875 54.5922V38.1737C39.4875 37.9168 39.7625 37.7076 40.1 37.7076H46.8375C47.175 37.7076 47.45 37.9168 47.45 38.1737V54.5827C47.4375 54.8396 47.1625 55.0584 46.825 55.0584ZM59.3125 55.0584C58.975 55.0584 58.7 54.8491 58.7 54.5922V34.9014H53.2V54.5922C53.2 54.8491 52.925 55.0584 52.5875 55.0584C52.25 55.0584 51.975 54.8491 51.975 54.5922V34.4257C51.975 34.1689 52.25 33.9596 52.5875 33.9596H59.325C59.6625 33.9596 59.9375 34.1689 59.9375 34.4257V54.5827C59.925 54.8396 59.65 55.0584 59.3125 55.0584ZM71.8 55.0584C71.4625 55.0584 71.1875 54.8491 71.1875 54.5922V26.5399H65.6875V54.5922C65.6875 54.8491 65.4125 55.0584 65.075 55.0584C64.7375 55.0584 64.4625 54.8491 64.4625 54.5922V26.0738C64.4625 25.8169 64.7375 25.6077 65.075 25.6077H71.8125C72.15 25.6077 72.425 25.8169 72.425 26.0738V54.5922C72.4125 54.8396 72.1375 55.0584 71.8 55.0584ZM67.2 20.3473C65.1125 20.3473 63.4 19.0536 63.4 17.4555C63.4 15.8574 65.1 14.5637 67.2 14.5637C69.3 14.5637 71 15.8574 71 17.4555C71 19.0536 69.2875 20.3473 67.2 20.3473ZM67.2 15.5054C65.7875 15.5054 64.6375 16.3805 64.6375 17.4555C64.6375 18.5304 65.7875 19.4055 67.2 19.4055C68.6125 19.4055 69.7625 18.5304 69.7625 17.4555C69.7625 16.3805 68.6125 15.5054 67.2 15.5054ZM55 30.9156C52.9125 30.9156 51.2 29.6219 51.2 28.0238C51.2 26.4353 52.9 25.132 55 25.132C57.1 25.132 58.8 26.4257 58.8 28.0238C58.8 29.6219 57.0875 30.9156 55 30.9156ZM55 26.0738C53.5875 26.0738 52.4375 26.9489 52.4375 28.0238C52.4375 29.0988 53.5875 29.9739 55 29.9739C56.4125 29.9739 57.5625 29.0988 57.5625 28.0238C57.5625 26.9489 56.4125 26.0738 55 26.0738ZM42.8 35.5577C40.7125 35.5577 39 34.264 39 32.6659C39 31.0678 40.7 29.7741 42.8 29.7741C44.9 29.7741 46.6 31.0678 46.6 32.6659C46.6 34.264 44.8875 35.5577 42.8 35.5577ZM42.8 30.7159C41.3875 30.7159 40.2375 31.591 40.2375 32.6659C40.2375 33.7409 41.3875 34.616 42.8 34.616C44.2125 34.616 45.3625 33.7409 45.3625 32.6659C45.3625 31.591 44.2125 30.7159 42.8 30.7159ZM30.5875 28.2617C28.4875 28.2617 26.7875 26.968 26.7875 25.3699C26.7875 23.7718 28.4875 22.4781 30.5875 22.4781C32.675 22.4781 34.3875 23.7718 34.3875 25.3699C34.3875 26.968 32.6875 28.2617 30.5875 28.2617ZM30.5875 23.4198C29.175 23.4198 28.025 24.2949 28.025 25.3699C28.025 26.4448 29.175 27.3199 30.5875 27.3199C32 27.3199 33.15 26.4448 33.15 25.3699C33.1625 24.2949 32.0125 23.4198 30.5875 23.4198ZM18.3875 39.0869C16.2875 39.0869 14.5875 37.7932 14.5875 36.1951C14.5875 34.6065 16.2875 33.3033 18.3875 33.3033C20.4875 33.3033 22.1875 34.597 22.1875 36.1951C22.1875 37.7932 20.4875 39.0869 18.3875 39.0869ZM18.3875 34.245C16.975 34.245 15.825 35.1202 15.825 36.1951C15.825 37.27 16.975 38.1451 18.3875 38.1451C19.8 38.1451 20.95 37.27 20.95 36.1951C20.9625 35.1202 19.8125 34.245 18.3875 34.245ZM12.1125 13.0987C8.79999 13.0987 6.11249 11.0535 6.11249 8.53273C6.11249 6.01192 8.79999 3.96674 12.1125 3.96674C15.425 3.96674 18.1125 6.01192 18.1125 8.53273C18.1125 11.0535 15.425 13.0987 12.1125 13.0987ZM12.1125 4.89896C9.48749 4.89896 7.33749 6.5256 7.33749 8.53273C7.33749 10.5399 9.47499 12.1665 12.1125 12.1665C14.75 12.1665 16.8875 10.5399 16.8875 8.53273C16.8875 6.5256 14.75 4.89896 12.1125 4.89896Z" fill="#0047AB"/>
<path d="M23.6125 21.8502H0.6125C0.275 21.8502 0 21.641 0 21.3841C0 16.3044 5.4375 12.1665 12.1125 12.1665C18.7875 12.1665 24.225 16.3044 24.225 21.3841C24.225 21.641 23.95 21.8502 23.6125 21.8502ZM1.25 20.9085H22.975C22.65 16.5613 17.9 13.0987 12.1125 13.0987C6.3125 13.0987 1.5625 16.5613 1.25 20.9085Z" fill="#0047AB"/>
<path d="M5.175 21.8502C4.8375 21.8502 4.5625 21.6409 4.5625 21.3841V18.4352C4.5625 18.1784 4.8375 17.9691 5.175 17.9691C5.5125 17.9691 5.7875 18.1784 5.7875 18.4352V21.3841C5.8 21.6409 5.525 21.8502 5.175 21.8502ZM19.05 21.8502C18.7125 21.8502 18.4375 21.6409 18.4375 21.3841V18.4352C18.4375 18.1784 18.7125 17.9691 19.05 17.9691C19.3875 17.9691 19.6625 18.1784 19.6625 18.4352V21.3841C19.6625 21.6409 19.3875 21.8502 19.05 21.8502ZM21.2 35.5292C21.0625 35.5292 20.9125 35.4911 20.8 35.415C20.5375 35.2438 20.5125 34.9489 20.7375 34.7587L29.0875 27.3675C29.3125 27.1772 29.7 27.1487 29.95 27.3199C30.2125 27.4911 30.2375 27.786 30.0125 27.9763L21.6625 35.3675C21.5375 35.4721 21.375 35.5292 21.2 35.5292ZM19.4375 34.3782C19.3 34.3782 19.15 34.3401 19.0375 34.264C18.775 34.0928 18.75 33.7979 18.975 33.6077L27.3125 26.2069C27.5375 26.0072 27.925 25.9882 28.175 26.1594C28.4375 26.3306 28.4625 26.6255 28.2375 26.8157L19.9 34.2165C19.7875 34.3306 19.6125 34.3782 19.4375 34.3782ZM41.175 31.0488C41.0375 31.0488 40.9125 31.0203 40.8 30.9442L33.2625 26.4352C33 26.2735 32.95 25.9786 33.1625 25.7789C33.375 25.5791 33.7625 25.5411 34.025 25.7028L41.5625 30.2117C41.825 30.3734 41.875 30.6683 41.6625 30.8681C41.5375 30.9822 41.3625 31.0488 41.175 31.0488Z" fill="#0047AB"/>
<path d="M39.7375 32.4376C39.6 32.4376 39.475 32.4091 39.3625 32.333L31.8375 27.8241C31.575 27.6623 31.525 27.3674 31.7375 27.1677C31.95 26.9679 32.3375 26.9299 32.6 27.0916L40.125 31.6005C40.3875 31.7622 40.4375 32.0571 40.225 32.2569C40.1 32.371 39.925 32.4376 39.7375 32.4376Z" fill="#0047AB"/>
<path d="M45.9625 32.9132C45.7375 32.9132 45.525 32.8181 45.4125 32.6564C45.2625 32.4281 45.3875 32.1427 45.6875 32.0286L52.6 29.4031C52.9 29.289 53.275 29.3841 53.425 29.6124C53.575 29.8407 53.45 30.1261 53.15 30.2402L46.2375 32.8657C46.15 32.8942 46.0625 32.9132 45.9625 32.9132Z" fill="#0047AB"/>
<path d="M44.9375 31.3342C44.7125 31.3342 44.5 31.2391 44.3875 31.0773C44.2375 30.849 44.3625 30.5637 44.6625 30.4495L51.5625 27.8241C51.8625 27.7099 52.2375 27.805 52.3875 28.0333C52.5375 28.2616 52.4125 28.547 52.1125 28.6612L45.2125 31.2866C45.125 31.3152 45.025 31.3342 44.9375 31.3342Z" fill="#0047AB"/>
<path d="M57.825 27.3865C57.675 27.3865 57.5375 27.3484 57.425 27.2723C57.175 27.1011 57.15 26.8062 57.3625 26.616L65.65 19.434C65.875 19.2438 66.2625 19.2248 66.525 19.3865C66.775 19.5577 66.8 19.8526 66.5875 20.0428L58.3 27.2248C58.1625 27.3294 58 27.3865 57.825 27.3865Z" fill="#0047AB"/>
<path d="M56.075 26.2165C55.925 26.2165 55.7875 26.1784 55.6625 26.1023C55.4125 25.9311 55.3875 25.6362 55.6125 25.446L63.9125 18.2735C64.1375 18.0833 64.525 18.0643 64.775 18.2355C65.025 18.4067 65.05 18.7016 64.825 18.8918L56.525 26.0643C56.4125 26.1594 56.25 26.2165 56.075 26.2165Z" fill="#0047AB"/>
</svg>
