<svg width="300" height="300" viewBox="0 0 300 300" fill="none" xmlns="http://www.w3.org/2000/svg">
<path d="M294.67 289.01H290.006C287.008 289.01 284.676 291.414 284.676 294.505C284.676 297.596 287.008 300 290.006 300H294.67C297.668 300 300 297.596 300 294.505C300 291.414 297.668 289.01 294.67 289.01ZM275.016 289.01H269.686V143.048C269.686 139.957 267.354 137.553 264.356 137.553C261.358 137.553 259.026 139.957 259.026 143.048V289.01H227.379V69.2079H259.026V107.33C259.026 110.421 261.358 112.825 264.356 112.825C267.354 112.825 269.686 110.421 269.686 107.33V63.7128C269.686 60.6219 267.354 58.2178 264.356 58.2178H222.049C219.051 58.2178 216.719 60.6219 216.719 63.7128V289.01H207.725V113.168C207.725 110.077 205.393 107.673 202.395 107.673H159.755C156.757 107.673 154.425 110.077 154.425 113.168V289.01H145.431V162.967C145.431 159.876 143.099 157.472 140.101 157.472H97.7946C94.7965 157.472 92.4647 159.876 92.4647 162.967V289.01H83.4704V207.271C83.4704 204.18 81.1385 201.776 78.1404 201.776H35.8338C32.8357 201.776 30.5039 204.18 30.5039 207.271V289.01H5.51966C2.52156 289.01 0.189697 291.414 0.189697 294.505C0.189697 297.596 2.52156 300 5.51966 300H275.016C278.014 300 280.346 297.596 280.346 294.505C280.346 291.414 278.014 289.01 275.016 289.01ZM165.085 118.663H196.732V289.01H165.085V118.663ZM103.125 168.462H134.771V289.01H103.125V168.462ZM41.1638 212.766H72.8104V289.01H41.1638V212.766Z" fill="#0A943A"/>
<path d="M264.356 117.977C261.358 117.977 259.026 120.381 259.026 123.472V128.623C259.026 131.714 261.358 134.118 264.356 134.118C267.354 134.118 269.686 131.714 269.686 128.623V123.472C269.686 120.381 267.354 117.977 264.356 117.977ZM49.8249 160.907C50.8243 160.907 51.8236 160.563 52.4899 160.22C95.7958 133.775 154.092 91.5316 194.733 36.9246L203.394 43.1065C206.726 45.5106 211.056 43.1065 211.389 39.3287L214.054 5.67148C214.387 1.55019 210.39 -1.19733 206.726 0.519872L177.078 14.9444C173.413 16.6616 173.08 21.8132 176.412 23.8738L185.739 30.7426C145.764 83.9759 89.1334 124.845 46.8268 150.947C44.1618 152.664 43.4956 155.755 44.8281 158.503C46.1605 159.876 48.1593 160.907 49.8249 160.907ZM23.8413 176.018C24.8407 176.018 25.5069 175.675 26.5063 175.331C30.5038 173.27 35.1675 170.523 39.8312 167.775C42.4962 166.402 43.1624 162.967 41.83 160.22C40.4975 157.472 37.1662 156.785 34.5013 158.159C29.5044 160.907 25.1738 163.654 21.1763 165.715C18.5114 167.089 17.512 170.523 18.8445 173.27C20.177 174.988 21.8426 176.018 23.8413 176.018ZM5.51958 185.634C6.18583 185.634 7.1852 185.634 7.85144 185.291C7.85144 185.291 9.18393 184.604 11.8489 183.23C14.5139 181.856 15.5133 178.422 14.1808 175.675C12.8483 172.927 9.51705 171.897 6.85207 173.27C4.52021 174.644 3.18772 174.988 3.18772 174.988C0.522743 176.361 -0.809748 179.452 0.522742 182.2C1.52211 184.261 3.52085 185.634 5.51958 185.634Z" fill="#0A943A"/>
</svg>
