<svg width="300" height="300" viewBox="0 0 300 300" fill="none" xmlns="http://www.w3.org/2000/svg">
<path d="M272.174 0H248.039C240.659 0 233.581 2.93946 228.363 8.17172C223.144 13.404 220.213 20.5005 220.213 27.9V232.1C220.213 239.5 223.144 246.596 228.363 251.828C233.581 257.061 240.659 260 248.039 260H272.174C279.554 260 286.632 257.061 291.85 251.828C297.068 246.596 300 239.5 300 232.1V27.9C300 20.5005 297.068 13.404 291.85 8.17172C286.632 2.93946 279.554 0 272.174 0ZM280.053 232.1C280.053 234.195 279.223 236.205 277.745 237.686C276.268 239.168 274.264 240 272.174 240H248.039C245.949 240 243.945 239.168 242.467 237.686C240.99 236.205 240.16 234.195 240.16 232.1V27.9C240.16 25.8048 240.99 23.7954 242.467 22.3139C243.945 20.8323 245.949 20 248.039 20H272.174C274.264 20 276.268 20.8323 277.745 22.3139C279.223 23.7954 280.053 25.8048 280.053 27.9V232.1ZM27.8258 260H51.9614C59.3332 259.974 66.3955 257.026 71.6082 251.799C76.8209 246.573 79.7609 239.491 79.7872 232.1V107.9C79.7609 100.509 76.8209 93.4274 71.6082 88.2008C66.3955 82.9743 59.3332 80.0264 51.9614 80H27.8258C20.4459 80 13.3683 82.9395 8.14999 88.1717C2.93164 93.404 0 100.5 0 107.9V232.1C0 239.5 2.93164 246.596 8.14999 251.828C13.3683 257.061 20.4459 260 27.8258 260ZM19.9468 107.9C19.9468 105.805 20.7769 103.795 22.2545 102.314C23.7321 100.832 25.7362 100 27.8258 100H51.9614C54.043 100.026 56.0321 100.867 57.5041 102.343C58.9762 103.818 59.8146 105.813 59.8404 107.9V232.1C59.8146 234.187 58.9762 236.182 57.5041 237.657C56.0321 239.133 54.043 239.974 51.9614 240H27.8258C25.7362 240 23.7321 239.168 22.2545 237.686C20.7769 236.205 19.9468 234.195 19.9468 232.1V107.9ZM161.669 260C169.041 259.974 176.103 257.026 181.316 251.799C186.528 246.573 189.468 239.491 189.495 232.1V67.9C189.468 60.5086 186.528 53.4274 181.316 48.2008C176.103 42.9743 169.041 40.0264 161.669 40H137.533C130.153 40 123.076 42.9395 117.857 48.1717C112.639 53.404 109.707 60.5005 109.707 67.9V232.1C109.707 239.5 112.639 246.596 117.857 251.828C123.076 257.061 130.153 260 137.533 260H161.669ZM129.654 232.1V67.9C129.654 65.8048 130.484 63.7954 131.962 62.3139C133.44 60.8323 135.444 60 137.533 60H161.669C163.75 60.0259 165.74 60.8666 167.212 62.3425C168.684 63.8185 169.522 65.8128 169.548 67.9V232.1C169.522 234.187 168.684 236.182 167.212 237.657C165.74 239.133 163.75 239.974 161.669 240H137.533C135.444 240 133.44 239.168 131.962 237.686C130.484 236.205 129.654 234.195 129.654 232.1ZM50.6649 290C50.6649 292.652 51.7157 295.196 53.586 297.071C55.4564 298.946 57.9932 300 60.6383 300H240.16C242.805 300 245.341 298.946 247.212 297.071C249.082 295.196 250.133 292.652 250.133 290C250.133 287.348 249.082 284.804 247.212 282.929C245.341 281.054 242.805 280 240.16 280H60.6383C57.9932 280 55.4564 281.054 53.586 282.929C51.7157 284.804 50.6649 287.348 50.6649 290Z" fill="#0047AB"/>
</svg>
