<svg width="60" height="60" viewBox="0 0 60 60" fill="none" xmlns="http://www.w3.org/2000/svg">
<g clip-path="url(#clip0_24_171)">
<path d="M49.2188 42.1875C47.7877 42.1875 46.4702 42.68 45.424 43.5026L36.2119 34.7092C35.8607 34.3741 35.3044 34.3868 34.9692 34.738C34.6341 35.0891 34.647 35.6455 34.998 35.9807L44.2099 44.7738C43.491 45.7806 43.0663 47.0112 43.0663 48.3398C43.0663 51.7322 45.8263 54.4922 49.2186 54.4922C52.611 54.4922 55.371 51.7322 55.371 48.3398C55.371 44.9475 52.6111 42.1875 49.2188 42.1875ZM49.2188 52.7344C46.7955 52.7344 44.8242 50.763 44.8242 48.3398C44.8242 45.9166 46.7955 43.9453 49.2188 43.9453C51.642 43.9453 53.6133 45.9166 53.6133 48.3398C53.6133 50.763 51.642 52.7344 49.2188 52.7344ZM46.6705 29.0039H37.793C37.3075 29.0039 36.9141 29.3973 36.9141 29.8828C36.9141 30.3683 37.3075 30.7617 37.793 30.7617H46.6705C47.0788 32.7652 48.8543 34.2773 50.9766 34.2773C53.3998 34.2773 55.3711 32.306 55.3711 29.8828C55.3711 27.4596 53.3998 25.4883 50.9766 25.4883C48.8543 25.4883 47.0788 27.0005 46.6705 29.0039ZM53.6133 29.8828C53.6133 31.3366 52.4304 32.5195 50.9766 32.5195C49.5227 32.5195 48.3398 31.3366 48.3398 29.8828C48.3398 28.429 49.5227 27.2461 50.9766 27.2461C52.4304 27.2461 53.6133 28.429 53.6133 29.8828ZM21.9727 30.7617C22.4582 30.7617 22.8516 30.3683 22.8516 29.8828C22.8516 29.3973 22.4582 29.0039 21.9727 29.0039H12.2409C11.813 26.0265 9.24633 23.7305 6.15234 23.7305C2.76 23.7305 0 26.4905 0 29.8828C0 33.2752 2.76 36.0352 6.15234 36.0352C9.24621 36.0352 11.813 33.7391 12.2409 30.7617H21.9727ZM6.15234 34.2773C3.72914 34.2773 1.75781 32.306 1.75781 29.8828C1.75781 27.4596 3.72914 25.4883 6.15234 25.4883C8.57555 25.4883 10.5469 27.4596 10.5469 29.8828C10.5469 32.306 8.57555 34.2773 6.15234 34.2773ZM36.0977 24.9109L52.0059 9.0027C52.3492 8.65934 52.3492 8.10293 52.0059 7.75969C51.6626 7.41656 51.1062 7.41656 50.7629 7.75969L34.8547 23.6679C34.5115 24.0112 34.5115 24.5677 34.8547 24.9109C35.198 25.254 35.7544 25.2541 36.0977 24.9109ZM21.1161 9.64805C22.1699 8.84449 22.8516 7.57676 22.8516 6.15234C22.8516 3.72914 20.8802 1.75781 18.457 1.75781C16.0338 1.75781 14.0625 3.72914 14.0625 6.15234C14.0625 9.00305 16.7545 11.1152 19.5335 10.413L25.6584 23.1355C25.869 23.5729 26.3941 23.7568 26.8316 23.5462C27.2689 23.3357 27.4529 22.8104 27.2423 22.3731L21.1161 9.64805ZM15.8203 6.15234C15.8203 4.69852 17.0032 3.51562 18.457 3.51562C19.9109 3.51562 21.0938 4.69852 21.0938 6.15234C21.0938 7.60617 19.9109 8.78906 18.457 8.78906C17.0032 8.78906 15.8203 7.60617 15.8203 6.15234ZM26.2328 35.8944C25.8179 35.6428 25.2773 35.7746 25.0253 36.1896L16.4706 50.2791C16.2188 50.694 16.3509 51.2345 16.7658 51.4866C17.1803 51.738 17.721 51.6069 17.9733 51.1914L26.528 37.1019C26.7798 36.687 26.6476 36.1464 26.2328 35.8944Z" fill="#0047AB"/>
<path d="M29.8828 21.0938C25.0365 21.0938 21.0938 25.0365 21.0938 29.8828C21.0938 34.7291 25.0365 38.6719 29.8828 38.6719C34.7291 38.6719 38.6719 34.7291 38.6719 29.8828C38.6719 25.0365 34.7291 21.0938 29.8828 21.0938ZM29.8828 36.9141C26.0058 36.9141 22.8516 33.7598 22.8516 29.8828C22.8516 26.0058 26.0058 22.8516 29.8828 22.8516C33.7598 22.8516 36.9141 26.0058 36.9141 29.8828C36.9141 33.7598 33.7598 36.9141 29.8828 36.9141ZM54.4922 0C51.5844 0 49.2188 2.36566 49.2188 5.27344C49.2188 8.18121 51.5844 10.5469 54.4922 10.5469C57.4 10.5469 59.7656 8.18121 59.7656 5.27344C59.7656 2.36566 57.4 0 54.4922 0ZM54.4922 8.78906C52.5537 8.78906 50.9766 7.21195 50.9766 5.27344C50.9766 3.33492 52.5537 1.75781 54.4922 1.75781C56.4307 1.75781 58.0078 3.33492 58.0078 5.27344C58.0078 7.21195 56.4307 8.78906 54.4922 8.78906ZM14.9414 49.2188C12.0336 49.2188 9.66797 51.5844 9.66797 54.4922C9.66797 57.4 12.0336 59.7656 14.9414 59.7656C17.8492 59.7656 20.2148 57.4 20.2148 54.4922C20.2148 51.5844 17.8492 49.2188 14.9414 49.2188ZM14.9414 58.0078C13.0029 58.0078 11.4258 56.4307 11.4258 54.4922C11.4258 52.5537 13.0029 50.9766 14.9414 50.9766C16.8799 50.9766 18.457 52.5537 18.457 54.4922C18.457 56.4307 16.8799 58.0078 14.9414 58.0078Z" fill="#0047AB"/>
</g>
<defs>
<clipPath id="clip0_24_171">
<rect width="60" height="60" fill="white"/>
</clipPath>
</defs>
</svg>
