<svg width="60" height="61" viewBox="0 0 60 61" fill="none" xmlns="http://www.w3.org/2000/svg">
<path d="M44.0625 12.13H47.8125C48.3281 12.13 48.75 11.7081 48.75 11.1925C48.75 10.6769 48.3281 10.255 47.8125 10.255H44.0625C43.5469 10.255 43.125 10.6769 43.125 11.1925C43.125 11.7081 43.5469 12.13 44.0625 12.13ZM43.125 14.9425C43.125 15.4581 43.5469 15.88 44.0625 15.88H53.4375C53.9531 15.88 54.375 15.4581 54.375 14.9425C54.375 14.4269 53.9531 14.005 53.4375 14.005H44.0625C43.5469 14.005 43.125 14.4269 43.125 14.9425ZM53.4375 17.755H44.0625C43.5469 17.755 43.125 18.1769 43.125 18.6925C43.125 19.2081 43.5469 19.63 44.0625 19.63H53.4375C53.9531 19.63 54.375 19.2081 54.375 18.6925C54.375 18.1769 53.9531 17.755 53.4375 17.755Z" fill="#0047AB"/>
<path d="M58.1156 9.26125C58.1063 9.17688 58.0969 9.0925 58.0687 9.01751C58.0594 8.98938 58.05 8.96126 58.0312 8.93313C57.9844 8.83001 57.9281 8.73625 57.8531 8.65188L52.2281 3.02688C52.1437 2.95188 52.05 2.89563 51.9562 2.84875C51.9187 2.83 51.8906 2.82063 51.8625 2.81125C51.7875 2.7925 51.7031 2.77375 51.6281 2.76438C51.6 2.76438 51.5812 2.755 51.5625 2.755H40.3125C39.7969 2.755 39.375 3.17688 39.375 3.6925V22.4425C39.375 22.9581 39.7969 23.38 40.3125 23.38H57.1875C57.7031 23.38 58.125 22.9581 58.125 22.4425V9.3175C58.125 9.3175 58.1156 9.28 58.1156 9.26125ZM56.25 21.505H41.25V4.63H50.625V9.3175C50.625 9.83313 51.0469 10.255 51.5625 10.255H56.25V21.505ZM6.5625 12.13H10.3125C10.8281 12.13 11.25 11.7081 11.25 11.1925C11.25 10.6769 10.8281 10.255 10.3125 10.255H6.5625C6.04688 10.255 5.625 10.6769 5.625 11.1925C5.625 11.7081 6.04688 12.13 6.5625 12.13ZM5.625 14.9425C5.625 15.4581 6.04688 15.88 6.5625 15.88H15.9375C16.4531 15.88 16.875 15.4581 16.875 14.9425C16.875 14.4269 16.4531 14.005 15.9375 14.005H6.5625C6.04688 14.005 5.625 14.4269 5.625 14.9425ZM15.9375 17.755H6.5625C6.04688 17.755 5.625 18.1769 5.625 18.6925C5.625 19.2081 6.04688 19.63 6.5625 19.63H15.9375C16.4531 19.63 16.875 19.2081 16.875 18.6925C16.875 18.1769 16.4531 17.755 15.9375 17.755Z" fill="#0047AB"/>
<path d="M20.625 22.4425V9.3175C20.625 9.3175 20.6156 9.28 20.6156 9.26125C20.6062 9.17688 20.5875 9.0925 20.5688 9.01751C20.5594 8.98938 20.55 8.96126 20.5312 8.93313C20.4844 8.83001 20.4281 8.73625 20.3531 8.65188L14.7281 3.02688C14.6438 2.95188 14.55 2.89563 14.4469 2.84875C14.4187 2.83 14.3906 2.82063 14.3625 2.81125C14.2875 2.78313 14.2031 2.77375 14.1188 2.76438C14.1 2.76438 14.0813 2.755 14.0625 2.755H2.8125C2.29688 2.755 1.875 3.17688 1.875 3.6925V22.4425C1.875 22.9581 2.29688 23.38 2.8125 23.38H19.6875C20.2031 23.38 20.625 22.9581 20.625 22.4425ZM18.75 21.505H3.75V4.63H13.125V9.3175C13.125 9.83313 13.5469 10.255 14.0625 10.255H18.75V21.505ZM30 32.755C25.0312 32.755 19.6875 33.9269 19.6875 36.505V44.005C19.6875 44.7363 20.1281 45.355 20.8594 45.8613C20.0812 46.3956 19.6875 47.0331 19.6875 47.755V55.255C19.6875 57.8331 25.0312 59.005 30 59.005C34.9688 59.005 40.3125 57.8331 40.3125 55.255V47.755C40.3125 47.0331 39.9188 46.3956 39.1406 45.8613C39.8719 45.355 40.3125 44.7363 40.3125 44.005V36.505C40.3125 33.9269 34.9688 32.755 30 32.755ZM38.4375 55.2363C38.2969 55.7613 35.4844 57.13 30 57.13C24.5156 57.13 21.7031 55.7613 21.5625 55.255V50.0331C23.5594 51.0363 26.85 51.505 30 51.505C33.15 51.505 36.4406 51.0363 38.4375 50.0331V55.2363ZM38.4375 43.9863C38.2969 44.5113 35.4844 45.88 30 45.88C24.5156 45.88 21.7031 44.5113 21.5625 44.005V38.7831C23.5594 39.7863 26.85 40.255 30 40.255C33.15 40.255 36.4406 39.7863 38.4375 38.7831V43.9863Z" fill="#0047AB"/>
<path d="M28.1812 42.0738C27.6562 42.0363 27.2156 42.43 27.1875 42.955C27.1594 43.4706 27.5438 43.9206 28.0688 43.9488C28.6875 43.9863 29.3344 44.005 30 44.005C30.6656 44.005 31.3125 43.9863 31.9313 43.9488C32.4469 43.9206 32.8406 43.4706 32.8125 42.955C32.775 42.4394 32.325 42.0456 31.8187 42.0738C30.6562 42.1488 29.3531 42.1488 28.1906 42.0738H28.1812ZM28.1812 53.3238C27.6562 53.2863 27.2156 53.68 27.1875 54.205C27.1594 54.7206 27.5438 55.1706 28.0688 55.1988C28.6875 55.2363 29.3344 55.255 30 55.255C30.6656 55.255 31.3125 55.2363 31.9313 55.1988C32.4469 55.1706 32.8406 54.7206 32.8125 54.205C32.775 53.6894 32.325 53.2956 31.8187 53.3238C30.6562 53.3988 29.3531 53.3988 28.1906 53.3238H28.1812ZM48.75 25.255C48.2344 25.255 47.8125 25.6769 47.8125 26.1925V44.9425H43.125C42.6094 44.9425 42.1875 45.3644 42.1875 45.88C42.1875 46.3956 42.6094 46.8175 43.125 46.8175H48.75C49.2656 46.8175 49.6875 46.3956 49.6875 45.88V26.1925C49.6875 25.6769 49.2656 25.255 48.75 25.255ZM16.875 44.9425H12.1875V26.1925C12.1875 25.6769 11.7656 25.255 11.25 25.255C10.7344 25.255 10.3125 25.6769 10.3125 26.1925V45.88C10.3125 46.3956 10.7344 46.8175 11.25 46.8175H16.875C17.3906 46.8175 17.8125 46.3956 17.8125 45.88C17.8125 45.3644 17.3906 44.9425 16.875 44.9425ZM23.4375 14.005H29.0625V29.9425C29.0625 30.4581 29.4844 30.88 30 30.88C30.5156 30.88 30.9375 30.4581 30.9375 29.9425V14.005H36.5625C37.0781 14.005 37.5 13.5831 37.5 13.0675C37.5 12.5519 37.0781 12.13 36.5625 12.13H23.4375C22.9219 12.13 22.5 12.5519 22.5 13.0675C22.5 13.5831 22.9219 14.005 23.4375 14.005Z" fill="#0047AB"/>
</svg>
