<svg width="60" height="60" viewBox="0 0 60 60" fill="none" xmlns="http://www.w3.org/2000/svg">
<path d="M56.7927 33.9928L54.3055 32.3018V27.6982L56.7927 26.0073C57.1964 25.7346 57.3709 25.2218 57.2182 24.7637L55.1236 18.3818C54.9709 17.9237 54.5564 17.6182 54.0545 17.6291L51.0218 17.7164L48.2836 13.9746L49.2982 11.16C49.4618 10.7018 49.3091 10.1891 48.9055 9.90548L43.4291 5.96729C43.0473 5.68366 42.5127 5.69457 42.1309 5.9782L39.72 7.80002L35.28 6.37093L34.4182 3.49093C34.2873 3.04366 33.8618 2.72729 33.3818 2.72729H26.6182C26.1382 2.72729 25.7127 3.04366 25.5709 3.50184L24.7091 6.38184L20.2691 7.81093L17.8582 5.98911C17.4764 5.70548 16.9527 5.69457 16.56 5.9782L11.0836 9.91639C10.6909 10.1891 10.5382 10.7018 10.7018 11.16L11.7164 13.9746L8.97818 17.7164L5.94546 17.6291C5.93455 17.6291 5.92364 17.6291 5.91273 17.6291C5.44364 17.6291 5.02909 17.9346 4.87636 18.3818L2.78182 24.7637C2.62909 25.2218 2.80364 25.7346 3.20727 26.0073L5.69455 27.6982V32.3018L3.20727 33.9928C2.80364 34.2655 2.62909 34.7782 2.78182 35.2364L4.87636 41.6182C5.02909 42.0655 5.44364 42.3709 5.91273 42.3709C5.92364 42.3709 5.93455 42.3709 5.94546 42.3709L8.97818 42.2837L11.7164 46.0255L10.7018 48.84C10.5382 49.2982 10.6909 49.8109 11.0945 50.0946L16.5709 54.0327C16.9636 54.3164 17.4873 54.3055 17.8691 54.0109L20.28 52.1891L24.72 53.6182L25.5818 56.4982C25.7236 56.9564 26.1491 57.2728 26.6291 57.2728H33.3927C33.8727 57.2728 34.2982 56.9564 34.44 56.4982L35.3018 53.6182L39.7418 52.1891L42.1527 54.0109C42.5345 54.3055 43.0582 54.3055 43.4509 54.0327L48.9273 50.0946C49.32 49.8109 49.4836 49.2982 49.32 48.84L48.3055 46.0255L51.0436 42.2837L54.0764 42.3709C54.5782 42.3382 54.9927 42.0764 55.1455 41.6182L57.24 35.2364C57.3709 34.7782 57.1964 34.2655 56.7927 33.9928ZM53.3018 40.1673L50.5091 40.0909C50.1491 40.08 49.8109 40.2437 49.6036 40.5382L46.1782 45.2073C45.96 45.5018 45.9055 45.8837 46.0364 46.2218L46.9636 48.8073L42.8073 51.7964L40.5927 50.1164C40.3091 49.8982 39.9382 49.8437 39.6 49.9418L34.0691 51.72C33.7309 51.8291 33.4582 52.1018 33.36 52.4509L32.5636 55.1018H27.4255L26.6291 52.4509C26.5309 52.1018 26.2582 51.84 25.92 51.72L20.3891 49.9418C20.0509 49.8327 19.68 49.8982 19.3964 50.1164L17.1818 51.7964L13.0255 48.8073L13.9527 46.2218C14.0727 45.8837 14.0182 45.5018 13.8109 45.2073L10.3855 40.5382C10.1782 40.2546 9.84 40.0909 9.48 40.0909L6.69818 40.1673L5.11636 35.3346L7.40727 33.7746C7.70182 33.5673 7.88727 33.2291 7.88727 32.8691V27.1091C7.88727 26.7491 7.71273 26.4109 7.40727 26.2037L5.11636 24.6437L6.69818 19.8109L9.48 19.8873C9.82909 19.8982 10.1782 19.7346 10.3855 19.44L13.8109 14.7709C14.0291 14.4764 14.0836 14.0946 13.9527 13.7564L13.0255 11.1709L17.1818 8.18184L19.3964 9.86184C19.68 10.08 20.0509 10.1346 20.3891 10.0364L25.92 8.2582C26.2582 8.14911 26.5309 7.87639 26.6291 7.5273L27.4255 4.87639H32.5636L33.36 7.5273C33.4582 7.87639 33.7309 8.14911 34.0691 8.2582L39.6 10.0364C39.9382 10.1455 40.3091 10.08 40.5927 9.86184L42.8073 8.18184L46.9636 11.1709L46.0364 13.7564C45.9164 14.0946 45.9709 14.4764 46.1782 14.7709L49.6036 19.44C49.8109 19.7237 50.16 19.8982 50.5091 19.8873L53.3018 19.8109L54.8836 24.6437L52.5927 26.2037C52.2982 26.4109 52.1127 26.7491 52.1127 27.1091V32.8691C52.1127 33.2291 52.2873 33.5673 52.5927 33.7746L54.8836 35.3346L53.3018 40.1673Z" fill="#0047AB"/>
<path d="M30 13.8109C21.0764 13.8109 13.8109 21.0764 13.8109 30C13.8109 38.9236 21.0764 46.1891 30 46.1891C38.9236 46.1891 46.1891 38.9236 46.1891 30C46.1891 21.0764 38.9236 13.8109 30 13.8109ZM38.28 41.2691L33.9709 36.96C34.5709 36.6 35.1491 36.1746 35.6618 35.6509C36.1745 35.1382 36.6109 34.5709 36.9709 33.96L41.28 38.2582C40.4291 39.4255 39.4255 40.4291 38.28 41.2691ZM31.5927 25.4618L29.2036 23.0727C31.0145 22.9855 32.8145 23.64 34.1127 24.9491C35.3345 26.1709 36.0109 27.8073 36.0109 29.5309C36.0109 31.2545 35.3345 32.8909 34.1127 34.1127C31.5818 36.6436 27.4691 36.6436 24.9382 34.1127C23.6291 32.8036 22.9745 31.0036 23.0618 29.2036L25.4509 31.5927C25.68 31.8218 26.0073 31.9418 26.3455 31.9091L30.4691 31.44C30.9709 31.3855 31.3745 30.9818 31.4291 30.48L31.8982 26.3564C31.9527 26.0291 31.8327 25.7018 31.5927 25.4618ZM42.4582 36.3709L37.8982 31.8109C38.0945 31.08 38.2036 30.3164 38.2036 29.5309C38.2036 27.2182 37.2982 25.0364 35.6618 23.4C33.3164 21.0546 29.7709 20.2582 26.6291 21.3709C26.28 21.5018 26.0073 21.7964 25.9309 22.1564C25.8436 22.5164 25.9636 22.8982 26.2255 23.1709L29.6836 26.6291L29.3782 29.3673L26.64 29.6727L23.1818 26.2146C22.92 25.9527 22.5382 25.8327 22.1673 25.92C21.8073 26.0073 21.5018 26.2691 21.3818 26.6182C20.2691 29.76 21.0655 33.3055 23.4109 35.6509C25.1018 37.3418 27.3164 38.1818 29.5418 38.1818C30.3055 38.1818 31.0691 38.0727 31.8109 37.8764L36.3818 42.4473C34.4618 43.4291 32.3018 43.9964 30.0109 43.9964C22.2873 43.9964 16.0036 37.7127 16.0036 29.9891C16.0036 22.2655 22.2873 15.9818 30.0109 15.9818C37.7345 15.9818 44.0182 22.2655 44.0182 29.9891C44.0073 32.3018 43.44 34.4618 42.4582 36.3709Z" fill="#0047AB"/>
</svg>
