<svg width="300" height="300" viewBox="0 0 300 300" fill="none" xmlns="http://www.w3.org/2000/svg">
<path d="M257.813 126.562C250.353 126.562 243.2 129.526 237.925 134.8C232.651 140.075 229.688 147.228 229.688 154.687C229.717 160.507 231.552 166.173 234.938 170.906L189.656 216.187C184.911 212.838 179.246 211.04 173.438 211.04C167.629 211.04 161.964 212.838 157.219 216.187L140.063 199.031C143.448 194.298 145.283 188.632 145.313 182.812C145.313 175.353 142.349 168.2 137.075 162.925C131.8 157.651 124.647 154.687 117.188 154.687C109.728 154.687 102.575 157.651 97.3001 162.925C92.0257 168.2 89.0625 175.353 89.0625 182.812C89.0925 188.632 90.9268 194.298 94.3125 199.031L58.4063 234.937C53.6733 231.552 48.0067 229.717 42.1875 229.687C36.6249 229.687 31.1872 231.337 26.5621 234.427C21.937 237.518 18.3321 241.91 16.2034 247.05C14.0747 252.189 13.5177 257.844 14.6029 263.299C15.6881 268.755 18.3668 273.767 22.3001 277.7C26.2335 281.633 31.2449 284.312 36.7006 285.397C42.1563 286.482 47.8113 285.925 52.9505 283.797C58.0897 281.668 62.4822 278.063 65.5726 273.438C68.663 268.813 70.3125 263.375 70.3125 257.812C70.2825 251.993 68.4483 246.327 65.0625 241.594L100.969 205.688C105.714 209.037 111.379 210.835 117.188 210.835C122.996 210.835 128.661 209.037 133.406 205.688L150.562 222.844C147.177 227.577 145.342 233.243 145.313 239.062C145.313 246.522 148.276 253.675 153.55 258.95C158.825 264.224 165.978 267.187 173.438 267.187C180.897 267.187 188.05 264.224 193.325 258.95C198.599 253.675 201.563 246.522 201.563 239.062C201.533 233.243 199.698 227.577 196.313 222.844L241.594 177.562C246.327 180.948 251.993 182.783 257.813 182.812C265.272 182.812 272.425 179.849 277.7 174.575C282.974 169.3 285.938 162.147 285.938 154.687C285.938 147.228 282.974 140.075 277.7 134.8C272.425 129.526 265.272 126.562 257.813 126.562Z" fill="#FECF01"/>
<path d="M42.1875 173.438C49.6467 173.438 56.8004 170.474 62.0749 165.2C67.3493 159.925 70.3125 152.772 70.3125 145.313C70.2825 139.493 68.4482 133.827 65.0625 129.094L100.969 93.1875C105.714 96.5368 111.379 98.335 117.188 98.335C122.996 98.335 128.661 96.5368 133.406 93.1875L150.562 110.344C147.177 115.077 145.342 120.743 145.312 126.563C145.312 134.022 148.276 141.175 153.55 146.45C158.825 151.724 165.978 154.688 173.438 154.688C180.897 154.688 188.05 151.724 193.325 146.45C198.599 141.175 201.562 134.022 201.562 126.563C201.533 120.743 199.698 115.077 196.312 110.344L241.594 65.0625C246.327 68.4483 251.993 70.2825 257.812 70.3125C263.375 70.3125 268.813 68.663 273.438 65.5726C278.063 62.4822 281.668 58.0897 283.797 52.9505C285.925 47.8113 286.482 42.1563 285.397 36.7006C284.312 31.2449 281.633 26.2335 277.7 22.3001C273.767 18.3668 268.755 15.6881 263.299 14.6029C257.844 13.5177 252.189 14.0747 247.05 16.2034C241.91 18.3321 237.518 21.937 234.427 26.5621C231.337 31.1872 229.688 36.6249 229.688 42.1875C229.717 48.0067 231.552 53.6733 234.938 58.4063L189.656 103.688C184.911 100.338 179.246 98.5401 173.438 98.5401C167.629 98.5401 161.964 100.338 157.219 103.688L140.062 86.5313C143.448 81.7983 145.283 76.1317 145.312 70.3125C145.312 62.8533 142.349 55.6996 137.075 50.4251C131.8 45.1507 124.647 42.1875 117.188 42.1875C109.728 42.1875 102.575 45.1507 97.3001 50.4251C92.0257 55.6996 89.0625 62.8533 89.0625 70.3125C89.0925 76.1317 90.9268 81.7983 94.3125 86.5313L58.4062 122.438C53.6733 119.052 48.0067 117.217 42.1875 117.188C34.7283 117.188 27.5746 120.151 22.3001 125.425C17.0257 130.7 14.0625 137.853 14.0625 145.313C14.0625 152.772 17.0257 159.925 22.3001 165.2C27.5746 170.474 34.7283 173.438 42.1875 173.438Z" fill="#FECF01"/>
</svg>
